# AST/ASF file generated using VICON BodyLanguage
# -----------------------------------------------
:version 1.10
:name VICON
:units
  mass 1.0
  length 0.45
  angle deg
:documentation
   .ast/.asf automatically generated from VICON data using
   VICON BodyBuilder and BodyLanguage model FoxedUp or BRILLIANT.MOD
:root
   order TX TY TZ RX RY RZ
   axis XYZ
   position 0 0 0  
   orientation 0 0 0 
:bonedata
  begin
     id 1 
     name lhipjoint
     direction 0.645422 -0.672597 0.361999 
     length 2.39934 
     axis 0 0 0  XYZ
  end
  begin
     id 2 
     name lfemur
     direction 0.34202 -0.939693 0  
     length 6.58112  
     axis 0 0 20  XYZ
    dof rx ry rz
    limits (-160.0 20.0)
           (-70.0 70.0)
           (-60.0 70.0)
  end
  begin
     id 3 
     name ltibia
     direction 0.34202 -0.939693 0   
     length 7.02673   
     axis 0 0 20   XYZ
    dof rx
    limits (-10.0 170.0)
  end
  begin
     id 4 
     name lfoot
     direction 0.0835106 -0.229444 0.969733   
     length 2.08772   
     axis -90 7.62852e-016 20   XYZ
    dof rx rz
    limits (-45.0 90.0)
           (-70.0 20.0)
  end
  begin
     id 5 
     name ltoes
     direction 1.5358e-011 -4.21925e-011 1   
     length 1.04844   
     axis -90 7.62852e-016 20   XYZ
    dof rx
    limits (-90.0 20.0)
  end
  begin
     id 6 
     name rhipjoint
     direction -0.644959 -0.672941 0.362185   
     length 2.39812  
     axis 0 0 0  XYZ 
  end
  begin
     id 7 
     name rfemur
     direction -0.34202 -0.939693 0   
     length 6.67015   
     axis 0 0 -20   XYZ
    dof rx ry rz
    limits (-160.0 20.0)
           (-70.0 70.0)
           (-70.0 60.0)
  end
  begin
     id 8 
     name rtibia
     direction -0.34202 -0.939693 0   
     length 7.35735   
     axis 0 0 -20   XYZ
    dof rx
    limits (-10.0 170.0)
 end
 begin
     id 9 
     name rfoot
     direction -0.0670769 -0.184292 0.98058   
     length 2.25469  
     axis -90 -7.62852e-016 -20   XYZ
    dof rx rz
    limits (-45.0 90.0)
           (-20.0 70.0)
  end
  begin
     id 10 
     name rtoes
     direction -1.53575e-011 -4.21908e-011 1   
     length 1.13399   
     axis -90 -7.62852e-016 -20   XYZ
    dof rx
    limits (-90.0 20.0)
  end
  begin
     id 11 
     name lowerback
     direction -0.0188328 0.993434 -0.112847   
     length 2.27656   
     axis 0 0 0   XYZ
    dof rx ry rz
    limits (-20.0 45.0)
           (-30.0 30.0)
           (-30.0 30.0)
  end
  begin
     id 12 
     name upperback
     direction 0.00983139 0.998968 -0.04435   
     length 2.28631   
     axis 0 0 0   XYZ
    dof rx ry rz
    limits (-20.0 45.0)
           (-30.0 30.0)
           (-30.0 30.0)
  end
  begin
     id 13 
     name thorax
     direction 0.0177718 0.999807 0.00833073   
     length 2.30999   
     axis 0 0 0   XYZ
    dof rx ry rz
    limits (-20.0 45.0)
           (-30.0 30.0)
           (-30.0 30.0)
  end
  begin
     id 14 
     name lowerneck
     direction -0.0835025 0.993181 0.0813558   
     length 1.39447   
     axis 0 0 0   XYZ
    dof rx ry rz
    limits (-20.0 45.0)
           (-30.0 30.0)
           (-30.0 30.0)
  end
  begin
     id 15 
     name upperneck
     direction 0.210059 0.976535 0.0474817   
     length 1.39882   
     axis 0 0 0   XYZ
    dof rx ry rz
    limits (-20.0 45.0)
           (-30.0 30.0)
           (-30.0 30.0)
  end
  begin
     id 16
     name head
     direction 0.0780891 0.996944 -0.00207154  
     length 1.41828  
     axis 0 0 0   XYZ
    dof rx ry rz
    limits (-20.0 45.0)
           (-30.0 30.0)
           (-30.0 30.0)
  end
  begin
     id 17 
     name lclavicle
     direction 0.982414 0.166355 -0.0847829  
     length 3.57922  
     axis 0 0 0   XYZ
    dof ry rz
    limits (-20.0 10.0)
           (0.0 20.0)
  end
  begin
     id 18 
     name lhumerus
     direction 1 -4.48975e-011 5.47647e-028   
     length 4.76405   
     axis -180 -30 -90   XYZ
    dof rx ry rz
    limits (-60.0 90.0)
           (-90.0 90.0)
           (-90.0 90.0)
  end
  begin
     id 19
     name lradius
     direction 1 -4.48949e-011 -8.32142e-027   
     length 3.13759   
     axis -180 -30 -90   XYZ
    dof rx
    limits (-10.0 170.0)
  end
  begin
     id 20
     name lwrist
     direction 1 -4.48978e-011 -1.32705e-026   
     length 1.56879   
     axis 9.60836e-015 90 90   XYZ
    dof ry
    limits (-180.0 0.0)
 end
  begin
     id 21 
     name lhand
     direction 1 -4.48975e-011 -2.65409e-026   
     length 0.732262   
     axis 1.69354e-014 90 90   XYZ
    dof rx rz
    limits (-90.0 90.0)
           (-45.0 45.0)
  end
  begin
     id 22 
     name lfingers
     direction 1 -4.48923e-011 -5.30819e-026   
     length 0.590368   
     axis 3.38708e-014 90 90   XYZ
    dof rx
    limits (0.0 90.0)
  end
  begin
     id 23
     name lthumb
     direction 0.707107 -6.34914e-011 0.707107   
     length 0.847654   
     axis -90 45 2.85299e-015   XYZ
    dof rx rz
    limits (-45.0 45.0)
           (-45.0 45.0)
  end
  begin
     id 24 
     name rclavicle
     direction -0.963658 0.245183 -0.106063   
     length 3.43472  
     axis 0 0 0   XYZ 
    dof ry rz
    limits (-10.0 20.0)
           (-20.0 0.0)
  end
  begin
     id 25 
     name rhumerus
     direction -1 -4.48963e-011 -1.64784e-027  
     length 5.10161   
     axis -180 30 90   XYZ
    dof rx ry rz
    limits (-90.0 60.0)
           (-90.0 90.0)
           (-90.0 90.0)
  end
  begin
     id 26 
     name rradius
     direction -1 -4.48969e-011 -2.87943e-027   
     length 3.23267   
     axis -180 30 90   XYZ
    dof rx
    limits (-10.0 170.0)
  end
  begin
     id 27 
     name rwrist
     direction -1 -4.48982e-011 -1.32705e-026   
     length 1.61633   
     axis 9.60836e-015 -90 -90   XYZ
    dof ry
    limits (-180.0 0.0)
  end
  begin
     id 28
     name rhand
     direction -1 -4.48963e-011 -2.65409e-026   
     length 0.702   
     axis 1.69354e-014 -90 -90   XYZ
    dof rx rz
    limits (-90.0 90.0)
           (-45.0 45.0)
  end
  begin
     id 29
     name rfingers
     direction -1 -4.48934e-011 -5.30819e-026   
     length 0.565971   
     axis 3.38708e-014 -90 -90   XYZ
    dof rx
    limits (0.0 90.0)
  end
  begin
     id 30
     name rthumb
     direction -0.707107 -6.34908e-011 0.707107   
     length 0.812624   
     axis -90 -45 -2.85299e-015   XYZ
    dof rx rz
    limits (-45.0 45.0)
           (-45.0 45.0)
  end
:hierarchy
  begin
    root lhipjoint rhipjoint lowerback
    lhipjoint lfemur
    lfemur ltibia
    ltibia lfoot
    lfoot ltoes
    rhipjoint rfemur
    rfemur rtibia
    rtibia rfoot
    rfoot rtoes
    lowerback upperback
    upperback thorax
    thorax lowerneck lclavicle rclavicle
    lowerneck upperneck
    upperneck head
    lclavicle lhumerus
    lhumerus lradius
    lradius lwrist
    lwrist lhand lthumb
    lhand lfingers
    rclavicle rhumerus
    rhumerus rradius
    rradius rwrist
    rwrist rhand rthumb
    rhand rfingers
  end

#!OML:ASF \\sashay\E\basketball\basketball\Project 1\Capture day 1\Session 1\Subject.ASF
:FULLY-SPECIFIED
:DEGREES
137
root 23.2716 14.3883 -8.35102 -201.705 68.7295 143.059
lowerback 17.0206 -2.72408 -6.56724
upperback 7.97861 -3.91198 -2.23342
thorax -0.664434 -1.78129 1.9962
lowerneck -8.61163 -6.50868 -14.0166
upperneck -12.1158 -5.65689 23.8043
head -0.687632 -2.38351 9.73629
rclavicle -7.0171e-014 -1.25234e-014
rhumerus -23.56 -22.8551 -66.2428
rradius 43.9232
rwrist -17.4947
rhand -39.731 44.3409
rfingers 7.12502
rthumb -12.7084 14.7476
lclavicle -7.0171e-014 -1.25234e-014
lhumerus -0.450438 -32.4743 59.9419
lradius 112.396
lwrist -6.43891
lhand -21.2994 36.3132
lfingers 7.12502
lthumb 5.08522 66.2322
rfemur -65.3973 -2.8336 23.1901
rtibia 51.7574
rfoot -7.80503 -0.203304
rtoes -7.9538
lfemur 29.0117 3.48611 -22.3449
ltibia 23.1944
lfoot 2.08974 9.95658
ltoes -36.5924
138
root 23.7526 14.3743 -8.5514 -202.968 69.6925 141.973
lowerback 17.1657 -3.14116 -6.41832
upperback 8.21094 -4.41283 -1.96539
thorax -0.441111 -2.03882 2.27228
lowerneck -9.29279 -5.90252 -13.8849
upperneck -12.3693 -4.72737 22.976
head -0.878365 -1.87364 9.48168
rclavicle 6.93758e-014 -4.87022e-014
rhumerus -20.0898 -20.7965 -68.5383
rradius 43.9171
rwrist -16.8569
rhand -39.6021 44.3846
rfingers 7.12502
rthumb -12.5842 14.7836
lclavicle 6.93758e-014 -4.87022e-014
lhumerus -1.06401 -33.8517 60.3027
lradius 108.054
lwrist -7.51407
lhand -23.1409 35.8259
lfingers 7.12502
lthumb 3.30706 65.7799
rfemur -64.8686 -2.60241 23.5444
rtibia 49.3286
rfoot -6.36127 0.87748
rtoes -8.1701
lfemur 28.7353 4.53412 -22.4044
ltibia 27.1729
lfoot 1.59921 6.9372
ltoes -37.3867
139
root 24.2308 14.3336 -8.75171 -205.541 70.5118 139.808
lowerback 17.4932 -3.5145 -6.57752
upperback 8.55354 -4.891 -1.85528
thorax -0.173767 -2.28439 2.55462
lowerneck -9.93511 -5.18032 -13.1626
upperneck -12.8045 -3.70337 21.5146
head -1.18427 -1.33843 8.9088
rclavicle -1.98785e-015 -1.8487e-014
rhumerus -16.6454 -18.7867 -70.8378
rradius 43.8434
rwrist -15.9329
rhand -39.4744 44.7654
rfingers 7.12502
rthumb -12.461 15.1569
lclavicle -1.98785e-015 -1.8487e-014
lhumerus -1.30213 -35.083 60.5171
lradius 102.878
lwrist -7.99704
lhand -27.1638 34.2704
lfingers 7.12502
lthumb -0.578278 64.2493
rfemur -64.039 -2.50087 23.6195
rtibia 47.639
rfoot -5.22356 1.92216
rtoes -10.6349
lfemur 28.352 5.92245 -22.6078
ltibia 31.8413
lfoot 1.19336 4.6796
ltoes -38.024
140
root 24.7021 14.2709 -8.95276 -208.153 71.1837 137.589
lowerback 17.7783 -4.04972 -6.76778
upperback 8.96854 -5.56899 -1.99894
thorax 0.197377 -2.62412 2.61055
lowerneck -10.2409 -4.36503 -12.7119
upperneck -13.611 -2.40397 21.2138
head -1.6168 -0.681875 8.80684
rclavicle 4.35338e-014 -6.95746e-015
rhumerus -13.0086 -16.8435 -73.7687
rradius 43.5831
rwrist -14.859
rhand -39.2564 45.3986
rfingers 7.12502
rthumb -12.2509 15.7774
lclavicle 4.35338e-014 -6.95746e-015
lhumerus -1.04347 -35.7834 60.0014
lradius 97.0038
lwrist -9.3844
lhand -31.3965 33.5909
lfingers 7.12502
lthumb -4.66599 63.5195
rfemur -63.2467 -2.55065 23.6192
rtibia 46.6665
rfoot -4.26164 3.18711
rtoes -11.5984
lfemur 27.707 7.33436 -22.7583
ltibia 36.9114
lfoot 0.640232 3.68491
ltoes -37.8612
141
root 25.1747 14.2015 -9.15498 -210.216 71.8089 135.935
lowerback 18.1924 -4.39663 -6.63897
upperback 9.12781 -6.00303 -1.88456
thorax 0.195111 -2.83469 2.74881
lowerneck -10.4165 -3.71788 -12.5604
upperneck -14.2077 -1.43273 20.485
head -1.96089 -0.183902 8.58393
rclavicle -3.77691e-015 5.86415e-015
rhumerus -10.2616 -14.8528 -75.7146
rradius 43.6302
rwrist -14.3249
rhand -38.7039 45.765
rfingers 7.12502
rthumb -11.7181 16.1128
lclavicle -3.77691e-015 5.86415e-015
lhumerus -0.395274 -36.5722 60.1161
lradius 90.43
lwrist -12.578
lhand -34.6757 33.5827
lfingers 7.12502
lthumb -7.83175 63.4176
rfemur -62.5279 -2.6742 23.7082
rtibia 46.7153
rfoot -3.6332 4.56687
rtoes -10.0375
lfemur 26.8684 8.83401 -22.5349
ltibia 42.2495
lfoot -0.198038 3.96294
ltoes -37.0227
142
root 25.6545 14.143 -9.35006 -211.68 72.4287 134.883
lowerback 18.6157 -4.68392 -6.40656
upperback 9.13162 -6.36534 -1.55896
thorax 0.0264638 -3.01173 3.05387
lowerneck -9.96438 -3.18492 -12.8144
upperneck -14.905 -0.684766 19.7056
head -2.39043 0.17986 8.40876
rclavicle -2.78299e-014 -3.49861e-014
rhumerus -8.04309 -12.6805 -77.112
rradius 43.7569
rwrist -13.7731
rhand -37.8513 45.7202
rfingers 7.12502
rthumb -10.8958 16.0229
lclavicle -2.78299e-014 -3.49861e-014
lhumerus 0.312435 -36.8707 60.8163
lradius 83.3787
lwrist -17.9008
lhand -36.6611 34.5809
lfingers 7.12502
lthumb -9.74768 64.3353
rfemur -61.8176 -2.87617 24.0869
rtibia 47.5677
rfoot -3.49951 5.62425
rtoes -10.6659
lfemur 25.735 10.4656 -21.8297
ltibia 47.828
lfoot -1.01569 5.04125
ltoes -36.1498
143
root 26.1339 14.1284 -9.5312 -212.666 73.0732 134.081
lowerback 18.7469 -4.97852 -6.00127
upperback 9.15402 -6.69082 -1.28739
thorax -0.00405428 -3.17047 3.17863
lowerneck -10.0372 -2.68573 -12.6453
upperneck -15.3626 -0.0124218 18.7518
head -2.65631 0.528183 8.08055
rclavicle -2.98177e-015 3.28989e-014
rhumerus -5.79382 -10.9142 -78.66
rradius 43.5842
rwrist -12.7751
rhand -36.8827 46.2093
rfingers 7.12502
rthumb -9.96143 16.465
lclavicle -2.98177e-015 3.28989e-014
lhumerus 1.4522 -36.5806 61.486
lradius 75.938
lwrist -24.0255
lhand -37.1186 36.0153
lfingers 7.12502
lthumb -10.1891 65.7486
rfemur -60.9707 -2.22391 23.1339
rtibia 50.3526
rfoot -9.51613 -4.42186
rtoes 64.5727
lfemur 23.9602 12.241 -20.8329
ltibia 53.5349
lfoot -1.42671 6.40375
ltoes -33.3465
144
root 26.5871 14.0738 -9.71572 -213.97 73.877 132.981
lowerback 18.9748 -5.16601 -5.4971
upperback 9.19997 -6.85934 -1.02331
thorax -0.0879226 -3.2445 3.22559
lowerneck -9.76033 -2.11069 -13.1406
upperneck -16.0827 0.874887 18.3547
head -3.06903 0.994596 8.07044
rclavicle 6.22196e-014 -3.42904e-014
rhumerus -3.5246 -9.4059 -80.1478
rradius 43.1655
rwrist -11.5665
rhand -36.1033 47.0565
rfingers 7.12502
rthumb -9.20944 17.2776
lclavicle 6.22196e-014 -3.42904e-014
lhumerus 3.16776 -35.7458 62.2721
lradius 67.984
lwrist -29.1077
lhand -36.1438 34.7816
lfingers 7.12502
lthumb -9.24855 64.5588
rfemur -60.4749 -1.22198 22.1744
rtibia 53.7577
rfoot -5.79396 4.24032
rtoes 50.9687
lfemur 22.1034 14.2578 -19.6262
ltibia 59.3909
lfoot -3.11395 8.42418
ltoes -31.0855
145
root 27.0113 14.0136 -9.90107 -214.19 74.8159 132.874
lowerback 19.1734 -5.35899 -4.7493
upperback 9.22223 -6.99127 -0.630347
thorax -0.201845 -3.29654 3.26852
lowerneck -10.0558 -1.72994 -13.4895
upperneck -16.3029 1.44368 17.8012
head -3.19465 1.32868 7.95797
rclavicle 5.96354e-015 4.17448e-015
rhumerus -1.33148 -7.75245 -81.5136
rradius 42.6969
rwrist -10.2215
rhand -35.8567 47.4934
rfingers 7.12502
rthumb -8.97148 17.7042
lclavicle 5.96354e-015 4.17448e-015
lhumerus 5.23232 -34.1847 63.3752
lradius 59.6236
lwrist -32.0952
lhand -33.8201 35.3969
lfingers 7.12502
lthumb -7.00591 65.2609
rfemur -60.52 -1.9698 24.4271
rtibia 58.3331
rfoot -8.14658 6.44412
rtoes 36.1618
lfemur 19.9005 16.2345 -18.0598
ltibia 65.2401
lfoot -4.51473 10.3045
ltoes -26.7597
146
root 27.4386 13.9267 -10.0657 -213.681 76.1244 133.904
lowerback 19.6882 -5.45315 -3.99547
upperback 9.42786 -6.96367 -0.131628
thorax -0.275513 -3.26513 3.41148
lowerneck -11.0604 -1.60081 -13.0628
upperneck -15.9464 1.53119 16.6793
head -2.9653 1.422 7.49609
rclavicle -4.49253e-014 2.06736e-014
rhumerus 0.827919 -5.93722 -82.8699
rradius 42.1062
rwrist -8.77521
rhand -35.7367 47.8919
rfingers 7.12502
rthumb -8.85572 18.0977
lclavicle -4.49253e-014 2.06736e-014
lhumerus 7.41807 -31.843 64.8183
lradius 50.9966
lwrist -32.7426
lhand -30.6455 37.1232
lfingers 7.12502
lthumb -3.94083 67.0665
rfemur -60.4198 -2.07784 26.7603
rtibia 61.786
rfoot -11.3936 1.80444
rtoes 17.4867
lfemur 18.2021 18.1958 -15.6159
ltibia 70.8975
lfoot -5.56953 11.7705
ltoes -24.5933
147
root 27.8872 13.883 -10.2329 -212.474 77.6075 135.544
lowerback 19.9517 -5.49811 -3.0307
upperback 9.73629 -6.81285 0.387997
thorax -0.142978 -3.16954 3.40865
lowerneck -12.5137 -1.74978 -12.6752
upperneck -15.3541 1.28681 15.7693
head -2.5438 1.36308 7.11472
rclavicle -3.65764e-014 4.4329e-014
rhumerus 2.96082 -4.34293 -84.1484
rradius 41.4065
rwrist -7.18073
rhand -35.154 48.4016
rfingers 7.12502
rthumb -8.29336 18.5844
lclavicle -3.65764e-014 4.4329e-014
lhumerus 9.58961 -28.1929 66.9159
lradius 42.7589
lwrist -30.5587
lhand -25.8735 39.7412
lfingers 7.12502
lthumb 0.667925 69.7199
rfemur -59.7049 -2.20656 28.8173
rtibia 64.1902
rfoot -13.0829 -2.18821
rtoes 5.1481
lfemur 16.3607 20.0428 -13.1189
ltibia 76.03
lfoot -6.60182 11.8228
ltoes -22.9847
